<svg xmlns="http://www.w3.org/2000/svg" xml:space="preserve" width="3in" height="3in" style="shape-rendering:geometricPrecision; text-rendering:geometricPrecision; image-rendering:optimizeQuality; fill-rule:evenodd; clip-rule:evenodd"
viewBox="0 0 3 3"
 xmlns:xlink="http://www.w3.org/1999/xlink">
 <defs>
  <style type="text/css">
   <![CDATA[
    .fil1 {fill:#250E1E}
    .fil0 {fill:#C6E2E2}
    .fil3 {fill:#DB5656}
    .fil2 {fill:#FFDA46}
   ]]>
  </style>
 </defs>
 <g id="Layer_x0020_1">
  <metadata id="CorelCorpID_0Corel-Layer"/>
  <circle class="fil0" cx="1.5" cy="1.5" r="1.5"/>
  <g id="_363082016">
   <g>
    <path id="_363082592" class="fil1" d="M2.2932 1.82951l-1.5864 0c-0.0330787,0 -0.0599764,-0.0269134 -0.0599764,-0.0599764l0 -1.00917c0,-0.0330748 0.0269134,-0.0599882 0.0599764,-0.0599882l1.5864 0c0.0330748,0 0.0599724,0.0269134 0.0599724,0.0599882l0 1.00915c0,0.0330827 -0.0268976,0.0599921 -0.0599724,0.0599921zm-1.5864 -1.07581c-0.00361417,0 -0.00664961,0.00305512 -0.00664961,0.00666535l0 1.00915c0,0.00361024 0.00305118,0.00664961 0.00664961,0.00664961l1.5864 7.87402e-006c0.00361024,0 0.00664961,-0.00305512 0.00664961,-0.00664961l0 -1.00916c0,-0.00361024 -0.00305512,-0.00666535 -0.00664961,-0.00666535l-1.5864 0z"/>
   </g>
   <g>
    <g>
     <path id="_363082496" class="fil1" d="M2.32219 2.16952l-1.35102 0c-0.0147323,0 -0.0266614,-0.0119291 -0.0266614,-0.0266614 0,-0.0147323 0.0119291,-0.0266614 0.0266614,-0.0266614l1.35102 0c0.0147323,0 0.0266614,0.0119291 0.0266614,0.0266614 0,0.0147323 -0.0119291,0.0266614 -0.0266614,0.0266614z"/>
    </g>
    <g>
     <path id="_363082400" class="fil1" d="M1.18801 2.29962c-0.0147323,0 -0.0266614,-0.0119291 -0.0266614,-0.0266614l0 -0.260209c0,-0.0147323 0.0119291,-0.0266614 0.0266614,-0.0266614 0.0147323,0 0.0266614,0.0119291 0.0266614,0.0266614l0 0.260209c0,0.0147362 -0.011937,0.0266614 -0.0266614,0.0266614z"/>
    </g>
    <g>
     <path id="_363082304" class="fil1" d="M0.857098 2.29962c-0.0147323,0 -0.0266654,-0.0119291 -0.0266654,-0.0266614l0 -0.260209c0,-0.0147323 0.0119331,-0.0266614 0.0266654,-0.0266614 0.0147323,0 0.0266614,0.0119291 0.0266614,0.0266614l0 0.260209c0,0.0147362 -0.0119291,0.0266614 -0.0266614,0.0266614z"/>
    </g>
    <g>
     <path id="_363082208" class="fil1" d="M0.677835 2.29962c-0.0147323,0 -0.0266614,-0.0119291 -0.0266614,-0.0266614l0 -0.260209c0,-0.0147323 0.0119291,-0.0266614 0.0266614,-0.0266614 0.0147323,0 0.0266614,0.0119291 0.0266614,0.0266614l0 0.260209c0,0.0147362 -0.0119449,0.0266614 -0.0266614,0.0266614z"/>
    </g>
   </g>
   <g>
    <path id="_363082088" class="fil1" d="M1.30262 1.59991c-0.0150669,0 -0.0295079,-0.00455512 -0.0406614,-0.012815 -0.00679134,-0.00502756 -0.0107874,-0.0129843 -0.0107874,-0.0214291l0 -0.601437c0,-0.00844488 0.00399606,-0.0164016 0.0107874,-0.0214291 0.0223031,-0.0165118 0.0590197,-0.0165276 0.0813228,0l0.384701 0.284839c0.0116102,0.00859843 0.0189252,0.0206457 0.0206378,0.0339094 0.000291339,0.00226378 0.000291339,0.00453937 0,0.00679134 -0.00170472,0.0132756 -0.00902756,0.025315 -0.0206378,0.0339094l-0.384701 0.284846c-0.0111496,0.00825984 -0.0255945,0.012815 -0.0406614,0.012815zm0.00187402 -0.61652l0 0.56313c0.00330709,-0.000295276 0.00576378,-0.00130709 0.00705512,-0.00226378l0.377185 -0.279272 -0.377185 -0.279343c-0.00130315,-0.000944882 -0.00374803,-0.00197244 -0.00705512,-0.00225197z"/>
   </g>
  </g>
  <path class="fil2" d="M1.26196 1.58709c-0.00679134,-0.00502756 -0.0107874,-0.0129843 -0.0107874,-0.0214291l0 -0.601437c0,-0.00844488 0.00399606,-0.0164016 0.0107874,-0.0214291 0.0223031,-0.0165118 0.0590197,-0.0165276 0.0813228,0l0.384701 0.284839c0.0116102,0.00859843 0.0189252,0.0206457 0.0206378,0.0339094 0.000291339,0.00226378 0.000291339,0.00453937 0,0.00679134 -0.00170472,0.0132756 -0.00902756,0.025315 -0.0206378,0.0339094l-0.384701 0.284846c-0.0111496,0.00825984 -0.0255945,0.012815 -0.0406614,0.012815 -0.0150669,0 -0.0295079,-0.00455512 -0.0406614,-0.012815zm-0.555154 0.189075l1.5864 7.87402e-006c0.00361024,0 0.00664961,-0.00305512 0.00664961,-0.00664961l0 -1.00916c0,-0.00361024 -0.00305512,-0.00666535 -0.00664961,-0.00666535l-1.5864 0c-0.00361417,0 -0.00664961,0.00305512 -0.00664961,0.00666535l0 1.00915c0,0.00361024 0.00305118,0.00664961 0.00664961,0.00664961z"/>
  <path class="fil3" d="M1.30449 0.983386l0 0.56313c0.00330709,-0.000295276 0.00576378,-0.00130709 0.00705512,-0.00226378l0.377185 -0.279272 -0.377185 -0.279343c-0.00130315,-0.000944882 -0.00374803,-0.00197244 -0.00705512,-0.00225197z"/>
 </g>
</svg>
